HIERARCHY
ROOT Hips
{
	OFFSET 53.189201 -9.739275 95.752899
	CHANNELS 6 Xposition Yposition Zposition Xrotation Yrotation Zrotation
	JOINT spine
	{
		OFFSET 0.000000 -0.458069 7.965683
		CHANNELS 3 Xrotation Yrotation Zrotation
		JOINT spine1
		{
			OFFSET 0.000000 -0.000001 10.243103
			CHANNELS 3 Xrotation Yrotation Zrotation
			JOINT spine2
			{
				OFFSET 0.000000 -0.000002 9.814751
				CHANNELS 3 Xrotation Yrotation Zrotation
				JOINT Neck
				{
					OFFSET 0.000000 -1.201384 25.198601
					CHANNELS 3 Xrotation Yrotation Zrotation
					JOINT Head
					{
						OFFSET 0.000000 -0.000002 7.613144
						CHANNELS 3 Xrotation Yrotation Zrotation
						End Site
						{
							OFFSET 0.000000 6.077327 18.428101
						}
					}
				}
				JOINT RightShoulder
				{
					OFFSET -4.132698 0.575449 10.599205
					CHANNELS 3 Xrotation Yrotation Zrotation
					JOINT RightArm
					{
						OFFSET 0.000000 -0.000002 13.901794
						CHANNELS 3 Xrotation Yrotation Zrotation
						JOINT RightArmRoll
						{
							OFFSET 0.000000 -0.000002 7.017883
							CHANNELS 3 Xrotation Yrotation Zrotation
							JOINT RightForeArm
							{
								OFFSET 0.000000 -0.000003 20.440598
								CHANNELS 3 Xrotation Yrotation Zrotation
								JOINT RightForeArmRoll
								{
									OFFSET 0.000000 -0.000001 7.875168
									CHANNELS 3 Xrotation Yrotation Zrotation
									JOINT RightHand
									{
										OFFSET 0.000000 -0.000003 15.803696
										CHANNELS 3 Xrotation Yrotation Zrotation
										End Site
										{
											OFFSET 0.000000 0.000000 0.100006
										}
									}
								}
							}
						}
					}
				}
				JOINT LeftShoulder
				{
					OFFSET 4.132698 0.575449 10.599205
					CHANNELS 3 Xrotation Yrotation Zrotation
					JOINT LeftArm
					{
						OFFSET 0.000000 -0.000002 13.901794
						CHANNELS 3 Xrotation Yrotation Zrotation
						JOINT LeftArmRoll
						{
							OFFSET 0.000000 -0.000002 7.017883
							CHANNELS 3 Xrotation Yrotation Zrotation
							JOINT LeftForeArm
							{
								OFFSET 0.000000 -0.000003 20.440598
								CHANNELS 3 Xrotation Yrotation Zrotation
								JOINT LeftForeArmRoll
								{
									OFFSET 0.000000 -0.000001 7.875168
									CHANNELS 3 Xrotation Yrotation Zrotation
									JOINT LeftHand
									{
										OFFSET 0.000000 -0.000003 15.803696
										CHANNELS 3 Xrotation Yrotation Zrotation
										End Site
										{
											OFFSET 0.000000 0.000000 0.100006
										}
									}
								}
							}
						}
					}
				}
			}
		}
	}
	JOINT RightUpLeg
	{
		OFFSET -7.060478 1.086100 -1.294701
		CHANNELS 3 Xrotation Yrotation Zrotation
		JOINT RightUpLegRoll
		{
			OFFSET 0.000000 -0.000003 18.530800
			CHANNELS 3 Xrotation Yrotation Zrotation
			JOINT RightLeg
			{
				OFFSET 0.000000 0.000004 -22.947601
				CHANNELS 3 Xrotation Yrotation Zrotation
				JOINT RightLegRoll
				{
					OFFSET 0.000000 -0.000004 23.022598
					CHANNELS 3 Xrotation Yrotation Zrotation
					JOINT RightFoot
					{
						OFFSET 0.000000 -0.000004 19.162506
						CHANNELS 3 Xrotation Yrotation Zrotation
						JOINT RightToeBase
						{
							OFFSET 0.000000 -0.000002 16.018799
							CHANNELS 3 Xrotation Yrotation Zrotation
							End Site
							{
								OFFSET 0.006790 0.894206 7.757812
							}
						}
					}
				}
			}
		}
	}
	JOINT LeftUpLeg
	{
		OFFSET 7.060478 1.086100 -1.294701
		CHANNELS 3 Xrotation Yrotation Zrotation
		JOINT LeftUpLegRoll
		{
			OFFSET 0.000000 -0.000003 18.530899
			CHANNELS 3 Xrotation Yrotation Zrotation
			JOINT LeftLeg
			{
				OFFSET 0.000000 -0.000004 22.947502
				CHANNELS 3 Xrotation Yrotation Zrotation
				JOINT LeftLegRoll
				{
					OFFSET 0.000000 -0.000004 23.235504
					CHANNELS 3 Xrotation Yrotation Zrotation
					JOINT LeftFoot
					{
						OFFSET 0.000000 -0.000003 18.949600
						CHANNELS 3 Xrotation Yrotation Zrotation
						JOINT LeftToeBase
						{
							OFFSET 0.000000 -0.000003 16.018799
							CHANNELS 3 Xrotation Yrotation Zrotation
							End Site
							{
								OFFSET -0.030430 0.894206 7.757812
							}
						}
					}
				}
			}
		}
	}
}
MOTION
Frames: 7
Frame Time: 0.041667
52.254200 -10.579416 95.724815 -1.455879 0.207353 1.423850 -2.134170 -0.018861 -0.091454 -0.265557 -0.029654 -0.205930 1.379510 -0.032021 -0.205455 22.872511 -1.768213 0.602180 -0.268949 2.742690 0.253189 7.378884 -73.274242 6.317181 -46.706346 -110.353871 -14.965286 -0.000000 0.000015 0.000001 -0.036425 4.286100 0.460396 -0.000001 0.000002 -3.032220 -5.000174 -7.999942 0.000003 4.611532 71.518426 -3.554696 -55.965972 113.605785 25.909645 0.000001 0.000001 0.000001 1.331151 -6.728504 -0.801819 0.000002 0.000001 3.002920 -5.000166 8.000178 0.000020 1.201080 -175.259034 -1.895075 -179.999991 0.000005 -1.162999 174.607994 -2.085743 -0.634824 -0.000005 -0.000000 0.086656 69.677738 6.944633 1.928949 25.456856 -7.355621 -0.000012 -0.469580 173.334218 0.173936 -0.000005 -0.000005 -1.133990 -5.558875 1.905961 0.308942 -0.000006 -0.000004 -0.021117 68.956149 -6.695571 -2.651372 25.456957 7.355613 -0.000011 
52.263699 -10.569213 95.723808 -1.452491 0.199927 1.408540 -2.134220 -0.020395 -0.089858 -0.265654 -0.032010 -0.201440 1.379420 -0.034330 -0.200945 22.873812 -1.615788 0.586367 -0.279633 2.628069 0.255708 7.465579 -73.194787 6.423305 -46.595981 -110.353918 -14.777335 -0.000000 0.000016 0.000000 -0.036353 4.360701 0.467875 -0.000000 0.000002 -3.032221 -5.000176 -7.999939 0.000001 4.642520 71.631868 -3.573269 -56.243432 113.559374 26.144108 0.000001 0.000000 0.000001 1.317146 -6.744565 -0.803183 -0.000000 0.000001 3.002922 -5.000167 8.000179 0.000017 1.192212 -175.246029 -1.885389 -179.999991 0.000004 -1.162999 174.602749 -2.091695 -0.634582 -0.000006 -0.000001 0.086656 69.680190 6.944647 1.929000 25.456858 -7.355620 -0.000012 -0.461106 173.344218 0.177638 -0.000005 -0.000005 -1.134210 -5.545394 1.907905 0.308165 -0.000006 -0.000004 -0.021117 68.954892 -6.697989 -2.644496 25.456953 7.355613 -0.000010 
52.261299 -10.574015 95.723999 -1.448948 0.192528 1.392860 -2.134311 -0.022002 -0.088285 -0.265834 -0.034452 -0.196958 1.379241 -0.036726 -0.196442 22.874770 -1.461660 0.570547 -0.289258 2.511377 0.258443 7.558681 -73.115140 6.536421 -46.479437 -110.354649 -14.583384 0.000001 0.000015 -0.000000 -0.036258 4.435191 0.475313 0.000001 0.000002 -3.032220 -5.000173 -7.999941 0.000003 4.674297 71.746404 -3.592510 -56.525956 113.512526 26.383527 0.000001 -0.000000 0.000000 1.302266 -6.760463 -0.804549 0.000002 -0.000000 3.002920 -5.000164 8.000178 0.000019 1.182944 -175.233011 -1.875390 -179.999991 0.000005 -1.162999 174.597257 -2.098640 -0.634430 -0.000006 -0.000000 0.086657 69.682519 6.944660 1.928955 25.456854 -7.355622 -0.000012 -0.452670 173.355201 0.181238 -0.000004 -0.000005 -1.134420 -5.531883 1.909949 0.307398 -0.000006 -0.000003 -0.021117 68.953642 -6.700441 -2.637528 25.456957 7.355612 -0.000010 
52.272800 -10.599415 95.726807 -1.445308 0.185146 1.376912 -2.134434 -0.023661 -0.086728 -0.266072 -0.036954 -0.192481 1.379000 -0.039182 -0.191943 22.875482 -1.306352 0.554727 -0.298128 2.393228 0.261320 7.655915 -73.035356 6.654071 -46.359120 -110.355524 -14.386071 -0.000000 0.000016 0.000001 -0.036138 4.509621 0.482724 -0.000001 0.000002 -3.032222 -5.000174 -7.999941 0.000003 4.706743 71.861725 -3.612333 -56.811499 113.465739 26.625701 -0.000000 -0.000000 0.000002 1.286779 -6.776230 -0.805913 0.000001 0.000000 3.002919 -5.000170 8.000178 0.000020 1.173391 -175.218996 -1.865148 -179.999991 0.000005 -1.162998 174.591588 -2.105596 -0.634300 -0.000006 -0.000001 0.086656 69.684841 6.944636 1.928906 25.456858 -7.355621 -0.000012 -0.444268 173.365200 0.184781 -0.000005 -0.000004 -1.134620 -5.518342 1.912054 0.306635 -0.000006 -0.000003 -0.021118 68.952488 -6.702870 -2.630553 25.456957 7.355613 -0.000011 
52.276699 -10.596813 95.726807 -1.441599 0.177775 1.360824 -2.134561 -0.025350 -0.085180 -0.266342 -0.039491 -0.188006 1.378731 -0.041672 -0.187445 22.876175 -1.150357 0.538902 -0.306579 2.274257 0.264266 7.755081 -72.955327 6.773851 -46.236020 -110.356903 -14.186024 -0.000001 0.000015 0.000002 -0.036014 4.584001 0.490118 -0.000000 0.000003 -3.032219 -5.000175 -7.999939 0.000002 4.739770 71.977538 -3.632695 -57.100228 113.419116 26.871084 -0.000000 -0.000000 0.000004 1.270959 -6.791926 -0.807277 -0.000000 0.000001 3.002921 -5.000165 8.000178 0.000017 1.163692 -175.205977 -1.854802 -179.999991 0.000005 -1.162999 174.585851 -2.112540 -0.635170 -0.000006 -0.000001 0.086656 69.687068 6.944644 1.928968 25.456853 -7.355621 -0.000012 -0.435876 173.375186 0.188288 -0.000005 -0.000005 -1.134820 -5.504802 1.914207 0.305877 -0.000006 -0.000004 -0.021117 68.951327 -6.705259 -2.623666 25.456957 7.355613 -0.000011 
52.266399 -10.580213 95.727806 -1.437868 0.170404 1.344687 -2.134702 -0.027046 -0.083634 -0.266621 -0.042037 -0.183532 1.378451 -0.044172 -0.182949 22.876940 -0.994201 0.523075 -0.314927 2.155078 0.267203 7.854116 -72.875339 6.893513 -46.110781 -110.359007 -13.983719 0.000000 0.000015 0.000002 -0.035882 4.658381 0.497509 -0.000000 0.000003 -3.032218 -5.000175 -7.999942 0.000005 4.773256 72.093446 -3.653504 -57.390077 113.373122 27.117547 -0.000000 -0.000000 0.000002 1.255039 -6.807605 -0.808649 0.000000 0.000000 3.002920 -5.000166 8.000178 0.000015 1.153940 -175.191975 -1.844407 -179.999991 0.000005 -1.162999 174.580031 -2.119496 -0.635049 -0.000006 -0.000001 0.086656 69.689301 6.944651 1.928928 25.456861 -7.355621 -0.000012 -0.427490 173.386183 0.191780 -0.000004 -0.000005 -1.135020 -5.491251 1.916362 0.305117 -0.000006 -0.000004 -0.021117 68.950165 -6.707685 -2.616790 25.456953 7.355612 -0.000009 
52.273899 -10.589113 95.727600 -1.434176 0.163025 1.328642 -2.134833 -0.028728 -0.082084 -0.266884 -0.044565 -0.179056 1.378191 -0.046654 -0.178452 22.877987 -0.838380 0.507240 -0.323482 2.036308 0.270051 7.950773 -72.795152 7.010612 -45.988118 -110.360721 -13.784105 0.000000 0.000016 -0.000000 -0.035755 4.732781 0.504911 -0.000000 0.000002 -3.032220 -5.000173 -7.999941 0.000003 4.807105 72.209047 -3.674701 -57.680770 113.327585 27.365044 0.000003 0.000000 0.000002 1.239296 -6.823321 -0.810031 0.000002 -0.000001 3.002920 -5.000167 8.000179 0.000020 1.144276 -175.178957 -1.834098 -179.999991 0.000005 -1.162999 174.574308 -2.126438 -0.634925 -0.000006 -0.000001 0.086656 69.691507 6.944626 1.928987 25.456854 -7.355619 -0.000012 -0.419100 173.396182 0.195303 -0.000005 -0.000005 -1.135220 -5.477709 1.918496 0.304356 -0.000006 -0.000004 -0.021117 68.949018 -6.710113 -2.609813 25.456948 7.355613 -0.000010 
